<svg width="20" height="18" viewBox="0 0 20 18" fill="none" xmlns="http://www.w3.org/2000/svg">
<path d="M17.8415 5.00252C17.8415 5.18395 17.8415 5.36538 17.8415 5.52089C17.8415 10.8861 13.8915 17.0807 6.69149 17.0807C4.46649 17.0807 2.41649 16.4068 0.666489 15.2663C0.966489 15.2923 1.29149 15.3182 1.59149 15.3182C3.41649 15.3182 5.11649 14.6702 6.46649 13.5816C4.74149 13.5557 3.29149 12.3634 2.81649 10.7565C3.06649 10.8083 3.29149 10.8342 3.56649 10.8342C3.91649 10.8342 4.26649 10.7824 4.59149 10.6787C2.79149 10.3159 1.44149 8.68298 1.44149 6.71316C1.44149 6.68724 1.44149 6.68724 1.44149 6.66132C1.96649 6.97234 2.56649 7.15377 3.21649 7.17969C2.16649 6.45397 1.46649 5.20987 1.46649 3.78433C1.46649 3.03269 1.66649 2.33288 1.99149 1.73675C3.91649 4.19903 6.81649 5.806 10.0665 5.98743C9.99149 5.70232 9.96649 5.36538 9.96649 5.05435C9.96649 2.79942 11.7165 0.985107 13.8915 0.985107C15.0165 0.985107 16.0415 1.47756 16.7415 2.25513C17.6415 2.0737 18.4665 1.73675 19.2415 1.27021C18.9415 2.22921 18.3165 3.00677 17.5165 3.52515C18.3165 3.42147 19.0665 3.21412 19.7665 2.87718C19.2665 3.70658 18.6165 4.4323 17.8415 5.00252Z" fill="#121212" fill-opacity="0.6"/>
</svg>
